<svg xmlns="http://www.w3.org/2000/svg" viewBox="70 70 710.99 130.00">
			<title>25 de Março Online</title>
			<path fill="#4c4d6b" d="M598.59,122.91c11.77,0,19.28,3.18,15.89,25.71-3.31,21.85-11,24.42-22.72,24.42-11.1,0-19.55-2.44-16-25C579.45,124.87,586.82,122.91,598.59,122.91ZM592.16,167c9.07,0,13.6-2.78,16.1-18.67,3-18.94-2-19.42-10.08-19.42-8.52,0-13.19.41-16.16,19.42C579.38,164.65,582.56,167,592.16,167Z"/>
			<path fill="#4c4d6b" d="M622.74,136.85h4.67l.88,4.12c4.26-2.36,8.11-4.73,13.59-4.73,7.44,0,10.08,5.61,9.07,11.77L647,172.77H640.8L644.72,148c.68-4.2-1.35-6.09-4.53-6.09-5,0-7.64,1.29-12.58,3.65l-4.33,27.2h-6.22Z"/>
			<path fill="#4c4d6b" d="M662.24,119.8h6.23l-6.29,39.77c-1,6.43.13,7,2.57,7.58,0,0,4.66,1.22,4.73,1.22l-.67,4.4h-5c-6.43,0-9.33-3.93-7.91-12.79Z"/>
			<path fill="#4c4d6b" d="M677.06,136.85h6.22l-5.68,35.92h-6.22Zm.88-9.95a1.81,1.81,0,0,1,1.89-1.69h4.4c1,0,1.42.75,1.29,1.69l-.61,4.33a1.72,1.72,0,0,1-1.83,1.56h-4.4a1.26,1.26,0,0,1-1.35-1.56Z"/>
			<path fill="#4c4d6b" d="M690.86,136.85h4.67l.88,4.12c4.26-2.36,8.11-4.73,13.59-4.73,7.44,0,10.08,5.61,9.07,11.77l-3.93,24.76h-6.22L712.84,148c.68-4.2-1.35-6.09-4.53-6.09-5,0-7.64,1.29-12.58,3.65l-4.33,27.2h-6.22Z"/>
			<path fill="#4c4d6b" d="M741.39,136.17c8.32,0,14.14,2.37,13.19,10.35-1.62,15.22-23,12.24-25.5,11.23-1.29,7.64,0,9.87,4.8,9.94a83.29,83.29,0,0,0,16.3-1l-.74,4.6a59.26,59.26,0,0,1-17.38,2c-8.66-.14-11.1-6.56-8.66-19.68C725.5,142.53,728.2,136.17,741.39,136.17Zm7,10.69c.74-4.4-2-5-7.37-4.94-9.54,0-10.15,5.82-11.3,11.5C729.69,153.42,746.87,155.45,748.36,146.86Z"/>
			<path fill="#4c4d6b" d="M219,122.32a39.73,39.73,0,0,1,15.14,3.29V99.18h13.17V173H236.36l-2.26-5.08c-3.2,2.54-9.22,5.64-15.14,5.64-12.23,0-16.28-9.78-16.28-25.3C202.68,132.29,205.13,122.32,219,122.32Zm3.48,40a21.7,21.7,0,0,0,11.66-3V134.55a31.88,31.88,0,0,0-11.66-1.89c-4.24,0-6.59,2.36-6.59,15.15C215.85,158.91,218.11,162.3,222.44,162.3Z"/>
			<path fill="#4c4d6b" d="M274.62,122.69c14.49,0,21.17,1.6,21.17,18.16,0,8.93-4.89,12.6-13.92,12.6H266c0,8.94,3.39,9.5,10.54,9.5,7.62,0,11.28.1,18.34-1v8.94c-7.06,2.63-17.78,2.63-25.59,2.63-12.7,0-16.46-7.34-16.46-25.68C252.8,126.36,258.82,122.69,274.62,122.69ZM278.48,144c2.73,0,4.14-1.32,4.14-3.76,0-6.3-.94-7.43-7.24-7.43-7,0-9.5.37-9.41,11.19Z"/>
			<path fill="#4c4d6b" d="M306,104.16h18.34l11.48,47,11.38-47h18.25L371.84,173h-13l-4.51-46-11.1,46H328.57L317,127l-4,46H300Z"/>
			<path fill="#4c4d6b" d="M377.37,155.62c0-7.34,3.95-13.74,14.68-13.74,0,0,14.67.1,14.67,0s.1-3.1,0-3.2c0-5.36-2.54-6.11-6.68-6.11-4.42,0-16.93.75-21,1v-8.18c6.58-2.54,13.45-3.29,22.76-3.29,10.72,0,18.06,3.67,18.06,16.08V173H409.45l-2.73-5.46c-.56,1-7.62,6.21-15.24,6-9.59-.28-14.11-6.77-14.11-13.26Zm17.88,7.43c5.45,0,11.47-4,11.47-4V150l-12.13.94c-3.48.29-4,2.92-4,5.08v2.45C390.54,162.58,392.8,163.05,395.25,163.05Z"/>
			<path fill="#4c4d6b" d="M425.42,123.07h11.1l2.07,6.3c3.39-3.38,8.09-6.77,14.3-6.77,2.16,0,4.23,0,5.55.56v12.7c-1.32-.09-4.33-.28-7.24-.28-5.46,0-9.41.94-12.61,5.55V173H425.42Z"/>
			<path fill="#4c4d6b" d="M480.43,122.5c4.89,0,14.77.38,22.95,3.11v8.09s-8.93-.57-17.31-.57c-6.11,0-8.93.38-8.93,15.15,0,12.79,2.16,14.67,8.93,14.67,8.66,0,18-.84,18-.84v8.27c-7.24,3.67-15.8,3.11-23.61,3.2-9.31,0-16.46-5-16.46-25.58S470.83,122.5,480.43,122.5Zm-1,56.73c2.64-1.13,2.83-2.64,2.83-6.21h8.84c0,9.59-2.35,13.26-10.54,13.26h-5.26v-5.64Z"/>
			<path fill="#4c4d6b" d="M532.33,122.6c17.22,0,22.77,6.3,22.77,26.15,0,18.53-5.27,24.74-22.77,24.74-17.21,0-22.76-6.87-22.76-24.74C509.57,128.34,515.5,122.6,532.33,122.6Zm0,40.26c7.44,0,9.6-.94,9.6-14.11,0-14-1.69-15.62-9.6-15.62s-9.59,1.6-9.59,15.62C522.74,161.64,525.37,162.86,532.33,162.86Z"/>
			<path fill="#ff6c6c" d="M146.86,77.52a20.73,20.73,0,0,1,20.72,20.71H174a27.12,27.12,0,0,0-54.23,0h6.4A20.73,20.73,0,0,1,146.86,77.52Z"/>
			<path fill="#ff6c6c" d="M96.31,105.41a151.86,151.86,0,0,1,28.6-2.44c14.2,0,20.41,9.78,20.41,21.26,0,15.52-19.75,31.41-26,36.4h26v12.13H97.07V161.19c8.74-5.92,35-26,35-36.87,0-6.21-3.2-9.12-11.29-9.12H96.31Z"/>
			<path fill="#ff6c6c" d="M150.85,160.54h26.53c6.11,0,6.87-3.77,6.87-6.68v-6.31c0-3.1-.57-6.67-6.31-6.67H169.1c-3.29,0-5.74,1.6-5.74,5.55H151L153,103.91h41.85V116H165.71L165,131.56a12.85,12.85,0,0,1,6.49-2.25,61.82,61.82,0,0,1,10.35,0c11,.47,15.61,7.52,15.61,17.12v9.68c0,12.89-9.78,17-17.49,17-11.67,0-16.46-.09-29.07-2.26Z"/>
</svg>