<?xml version="1.0" encoding="iso-8859-1"?>
<!-- Generator: Adobe Illustrator 22.1.0, SVG Export Plug-In . SVG Version: 6.00 Build 0)  -->
<svg xmlns="http://www.w3.org/2000/svg" xmlns:xlink="http://www.w3.org/1999/xlink" version="1.1" id="Layer_3" x="0px" y="0px" viewBox="0 0 64 64" style="enable-background:new 0 0 64 64;" xml:space="preserve" width="512" height="512">
<g>
	<path d="M62,14H2c-0.553,0-1,0.447-1,1v34c0,0.553,0.447,1,1,1h60c0.553,0,1-0.447,1-1V15C63,14.447,62.553,14,62,14z M61,48H3V16   h58V48z"/>
	<rect x="24" y="18" width="2" height="22"/>
	<rect x="14" y="18" width="2" height="22"/>
	<rect x="28" y="18" width="2" height="22"/>
	<rect x="38" y="18" width="2" height="22"/>
	<rect x="48" y="18" width="2" height="22"/>
	<rect x="18" y="18" width="4" height="22"/>
	<rect x="8" y="18" width="4" height="28"/>
	<rect x="52" y="18" width="4" height="28"/>
	<rect x="32" y="18" width="4" height="22"/>
	<rect x="42" y="18" width="4" height="22"/>
</g>
</svg>
